<?xml version="1.0" encoding="UTF-8"?>
<svg xmlns="http://www.w3.org/2000/svg" xmlns:xlink="http://www.w3.org/1999/xlink" width="48pt" height="48pt" viewBox="0 0 48 48" version="1.1">
<g id="surface1">
<path style=" stroke:none;fill-rule:nonzero;fill:#424242;fill-opacity:1;" d="M 24 42.234375 L 23.25 41.796875 C 22.480469 41.351563 4.5 30.796875 4.5 19.5 C 4.5 13.710938 9.210938 9 15 9 C 18.816406 9 22.160156 11.042969 24 14.09375 C 25.839844 11.042969 29.183594 9 33 9 C 38.789063 9 43.5 13.710938 43.5 19.5 C 43.5 30.796875 25.519531 41.351563 24.75 41.796875 Z M 15 12 C 10.863281 12 7.5 15.363281 7.5 19.5 C 7.5 27.910156 20.675781 36.667969 24 38.742188 C 27.324219 36.667969 40.5 27.910156 40.5 19.5 C 40.5 15.363281 37.136719 12 33 12 C 28.863281 12 25.5 15.363281 25.5 19.5 L 22.5 19.5 C 22.5 15.363281 19.136719 12 15 12 Z "/>
</g>
</svg>
