<?xml version="1.0" encoding="UTF-8"?>
<svg xmlns="http://www.w3.org/2000/svg" xmlns:xlink="http://www.w3.org/1999/xlink" width="16pt" height="16pt" viewBox="0 0 16 16" version="1.1">
<g id="surface1">
<path style=" stroke:none;fill-rule:nonzero;fill:#424242;fill-opacity:1;" d="M 16 3.980469 C 15.023438 4.828125 12.753906 6.804688 11.164063 8.1875 L 16 11.996094 Z "/>
<path style=" stroke:none;fill-rule:nonzero;fill:#424242;fill-opacity:1;" d="M 6.933594 9.164063 C 7.382813 9.558594 7.828125 9.601563 8 9.601563 C 8.171875 9.601563 8.617188 9.558594 9.066406 9.164063 C 9.519531 8.769531 15.375 3.675781 16 3.132813 L 16 2.238281 L 0 2.238281 L 0 3.128906 C 0.964844 3.96875 6.496094 8.785156 6.933594 9.164063 Z "/>
<path style=" stroke:none;fill-rule:nonzero;fill:#424242;fill-opacity:1;" d="M 10.671875 8.617188 C 10.050781 9.15625 9.601563 9.550781 9.488281 9.648438 C 8.875 10.183594 8.242188 10.238281 8 10.238281 C 7.757813 10.238281 7.125 10.183594 6.511719 9.648438 C 6.398438 9.550781 5.949219 9.15625 5.328125 8.617188 L 0 12.824219 L 0 13.761719 L 16 13.761719 L 16 12.808594 Z "/>
<path style=" stroke:none;fill-rule:nonzero;fill:#424242;fill-opacity:1;" d="M 4.835938 8.1875 C 3.269531 6.824219 1.035156 4.878906 0 3.976563 L 0 12.007813 Z "/>
</g>
</svg>
