<?xml version="1.0" encoding="UTF-8"?>
<svg xmlns="http://www.w3.org/2000/svg" xmlns:xlink="http://www.w3.org/1999/xlink" width="32px" height="32px" viewBox="0 0 16 16" version="1.1">
<g id="surface1">
<path style=" stroke:none;fill-rule:nonzero;fill:#424242;fill-opacity:1;" d="M 8 1.28125 C 3.9375 1.28125 0.640625 4.160156 0.640625 7.679688 C 0.640625 9.664063 1.695313 11.550781 3.519531 12.734375 C 3.488281 13.089844 3.296875 13.886719 2.625 14.847656 L 2.273438 15.359375 L 2.910156 15.359375 C 4.640625 15.359375 5.824219 14.304688 6.207031 13.886719 C 6.785156 14.015625 7.390625 14.078125 8 14.078125 C 12.0625 14.078125 15.359375 11.199219 15.359375 7.679688 C 15.359375 4.160156 12.0625 1.28125 8 1.28125 Z M 4.800781 8.320313 C 4.449219 8.320313 4.160156 8.03125 4.160156 7.679688 C 4.160156 7.328125 4.449219 7.039063 4.800781 7.039063 C 5.152344 7.039063 5.441406 7.328125 5.441406 7.679688 C 5.441406 8.03125 5.152344 8.320313 4.800781 8.320313 Z M 8 8.320313 C 7.648438 8.320313 7.359375 8.03125 7.359375 7.679688 C 7.359375 7.328125 7.648438 7.039063 8 7.039063 C 8.351563 7.039063 8.640625 7.328125 8.640625 7.679688 C 8.640625 8.03125 8.351563 8.320313 8 8.320313 Z M 11.199219 8.320313 C 10.847656 8.320313 10.558594 8.03125 10.558594 7.679688 C 10.558594 7.328125 10.847656 7.039063 11.199219 7.039063 C 11.550781 7.039063 11.839844 7.328125 11.839844 7.679688 C 11.839844 8.03125 11.550781 8.320313 11.199219 8.320313 Z "/>
</g>
</svg>
